<mxfile host="app.diagrams.net" modified="2022-01-25T14:51:36.999Z" agent="5.0 (Windows NT 10.0; Win64; x64) AppleWebKit/537.36 (KHTML, like Gecko) Chrome/97.0.4692.99 Safari/537.36" etag="6Rg1nkdb_MKsYSZ0E6Vk" version="16.2.4" type="github">
  <diagram id="0h9HM6c3EMI4BqkOGkSn" name="Page-1">
    <mxGraphModel dx="813" dy="504" grid="1" gridSize="10" guides="1" tooltips="1" connect="1" arrows="1" fold="1" page="1" pageScale="1" pageWidth="827" pageHeight="1169" math="0" shadow="0">
      <root>
        <mxCell id="0" />
        <mxCell id="1" parent="0" />
        <mxCell id="uXs6J3MQpKC_cQAM-zRv-2" style="edgeStyle=orthogonalEdgeStyle;rounded=0;orthogonalLoop=1;jettySize=auto;html=1;exitX=1;exitY=0.5;exitDx=0;exitDy=0;" edge="1" parent="1" source="uXs6J3MQpKC_cQAM-zRv-1">
          <mxGeometry relative="1" as="geometry">
            <mxPoint x="710" y="390.20000000000005" as="targetPoint" />
          </mxGeometry>
        </mxCell>
        <mxCell id="uXs6J3MQpKC_cQAM-zRv-6" style="edgeStyle=orthogonalEdgeStyle;rounded=0;orthogonalLoop=1;jettySize=auto;html=1;exitX=0.75;exitY=1;exitDx=0;exitDy=0;entryX=0.5;entryY=0;entryDx=0;entryDy=0;" edge="1" parent="1" source="uXs6J3MQpKC_cQAM-zRv-1" target="uXs6J3MQpKC_cQAM-zRv-5">
          <mxGeometry relative="1" as="geometry" />
        </mxCell>
        <mxCell id="uXs6J3MQpKC_cQAM-zRv-1" value="GUN&lt;br&gt;" style="rounded=0;whiteSpace=wrap;html=1;" vertex="1" parent="1">
          <mxGeometry x="350" y="360" width="230" height="60" as="geometry" />
        </mxCell>
        <mxCell id="uXs6J3MQpKC_cQAM-zRv-3" value="silencer" style="rounded=0;whiteSpace=wrap;html=1;" vertex="1" parent="1">
          <mxGeometry x="710" y="380" width="60" height="20" as="geometry" />
        </mxCell>
        <mxCell id="uXs6J3MQpKC_cQAM-zRv-11" style="edgeStyle=orthogonalEdgeStyle;rounded=0;orthogonalLoop=1;jettySize=auto;html=1;exitX=0.5;exitY=1;exitDx=0;exitDy=0;entryX=0.475;entryY=0.03;entryDx=0;entryDy=0;entryPerimeter=0;" edge="1" parent="1" source="uXs6J3MQpKC_cQAM-zRv-5" target="uXs6J3MQpKC_cQAM-zRv-9">
          <mxGeometry relative="1" as="geometry" />
        </mxCell>
        <mxCell id="uXs6J3MQpKC_cQAM-zRv-12" style="edgeStyle=orthogonalEdgeStyle;rounded=0;orthogonalLoop=1;jettySize=auto;html=1;exitX=0.75;exitY=1;exitDx=0;exitDy=0;entryX=0.5;entryY=0;entryDx=0;entryDy=0;" edge="1" parent="1" source="uXs6J3MQpKC_cQAM-zRv-5" target="uXs6J3MQpKC_cQAM-zRv-8">
          <mxGeometry relative="1" as="geometry" />
        </mxCell>
        <mxCell id="uXs6J3MQpKC_cQAM-zRv-13" style="edgeStyle=orthogonalEdgeStyle;rounded=0;orthogonalLoop=1;jettySize=auto;html=1;exitX=0.25;exitY=1;exitDx=0;exitDy=0;entryX=0.5;entryY=0;entryDx=0;entryDy=0;" edge="1" parent="1" source="uXs6J3MQpKC_cQAM-zRv-5" target="uXs6J3MQpKC_cQAM-zRv-7">
          <mxGeometry relative="1" as="geometry" />
        </mxCell>
        <mxCell id="uXs6J3MQpKC_cQAM-zRv-5" value="grip" style="rounded=0;whiteSpace=wrap;html=1;" vertex="1" parent="1">
          <mxGeometry x="470" y="460" width="120" height="20" as="geometry" />
        </mxCell>
        <mxCell id="uXs6J3MQpKC_cQAM-zRv-15" style="edgeStyle=orthogonalEdgeStyle;rounded=0;orthogonalLoop=1;jettySize=auto;html=1;exitX=0.5;exitY=1;exitDx=0;exitDy=0;entryX=0.5;entryY=0;entryDx=0;entryDy=0;" edge="1" parent="1" source="uXs6J3MQpKC_cQAM-zRv-7" target="uXs6J3MQpKC_cQAM-zRv-14">
          <mxGeometry relative="1" as="geometry" />
        </mxCell>
        <mxCell id="uXs6J3MQpKC_cQAM-zRv-31" style="edgeStyle=orthogonalEdgeStyle;rounded=0;orthogonalLoop=1;jettySize=auto;html=1;exitX=0.25;exitY=1;exitDx=0;exitDy=0;entryX=0.5;entryY=0;entryDx=0;entryDy=0;" edge="1" parent="1" source="uXs6J3MQpKC_cQAM-zRv-7" target="uXs6J3MQpKC_cQAM-zRv-30">
          <mxGeometry relative="1" as="geometry">
            <Array as="points">
              <mxPoint x="444" y="550" />
              <mxPoint x="354" y="550" />
            </Array>
          </mxGeometry>
        </mxCell>
        <mxCell id="uXs6J3MQpKC_cQAM-zRv-7" value="latarka" style="rounded=0;whiteSpace=wrap;html=1;" vertex="1" parent="1">
          <mxGeometry x="414" y="520" width="120" height="20" as="geometry" />
        </mxCell>
        <mxCell id="uXs6J3MQpKC_cQAM-zRv-8" value="small grip" style="rounded=0;whiteSpace=wrap;html=1;" vertex="1" parent="1">
          <mxGeometry x="560" y="520" width="120" height="20" as="geometry" />
        </mxCell>
        <mxCell id="uXs6J3MQpKC_cQAM-zRv-9" value="longer grip" style="rounded=0;whiteSpace=wrap;html=1;" vertex="1" parent="1">
          <mxGeometry x="490" y="540" width="120" height="20" as="geometry" />
        </mxCell>
        <mxCell id="uXs6J3MQpKC_cQAM-zRv-14" value="small grip" style="rounded=0;whiteSpace=wrap;html=1;" vertex="1" parent="1">
          <mxGeometry x="414" y="560" width="120" height="20" as="geometry" />
        </mxCell>
        <mxCell id="uXs6J3MQpKC_cQAM-zRv-25" style="edgeStyle=orthogonalEdgeStyle;rounded=0;orthogonalLoop=1;jettySize=auto;html=1;exitX=0.5;exitY=1;exitDx=0;exitDy=0;entryX=0.75;entryY=0;entryDx=0;entryDy=0;" edge="1" parent="1" source="uXs6J3MQpKC_cQAM-zRv-19" target="uXs6J3MQpKC_cQAM-zRv-1">
          <mxGeometry relative="1" as="geometry" />
        </mxCell>
        <mxCell id="uXs6J3MQpKC_cQAM-zRv-27" style="edgeStyle=orthogonalEdgeStyle;rounded=0;orthogonalLoop=1;jettySize=auto;html=1;exitX=0.5;exitY=0;exitDx=0;exitDy=0;entryX=0.5;entryY=1;entryDx=0;entryDy=0;" edge="1" parent="1" source="uXs6J3MQpKC_cQAM-zRv-19" target="uXs6J3MQpKC_cQAM-zRv-23">
          <mxGeometry relative="1" as="geometry" />
        </mxCell>
        <mxCell id="uXs6J3MQpKC_cQAM-zRv-28" style="edgeStyle=orthogonalEdgeStyle;rounded=0;orthogonalLoop=1;jettySize=auto;html=1;exitX=0.75;exitY=0;exitDx=0;exitDy=0;entryX=0.5;entryY=1;entryDx=0;entryDy=0;" edge="1" parent="1" source="uXs6J3MQpKC_cQAM-zRv-19" target="uXs6J3MQpKC_cQAM-zRv-22">
          <mxGeometry relative="1" as="geometry" />
        </mxCell>
        <mxCell id="uXs6J3MQpKC_cQAM-zRv-29" style="edgeStyle=orthogonalEdgeStyle;rounded=0;orthogonalLoop=1;jettySize=auto;html=1;exitX=0.25;exitY=0;exitDx=0;exitDy=0;entryX=0.5;entryY=1;entryDx=0;entryDy=0;" edge="1" parent="1" source="uXs6J3MQpKC_cQAM-zRv-19" target="uXs6J3MQpKC_cQAM-zRv-21">
          <mxGeometry relative="1" as="geometry" />
        </mxCell>
        <mxCell id="uXs6J3MQpKC_cQAM-zRv-19" value="scope" style="rounded=0;whiteSpace=wrap;html=1;" vertex="1" parent="1">
          <mxGeometry x="460" y="310" width="120" height="20" as="geometry" />
        </mxCell>
        <mxCell id="uXs6J3MQpKC_cQAM-zRv-21" value="small" style="rounded=0;whiteSpace=wrap;html=1;" vertex="1" parent="1">
          <mxGeometry x="390" y="230" width="120" height="20" as="geometry" />
        </mxCell>
        <mxCell id="uXs6J3MQpKC_cQAM-zRv-22" value="big/sniper" style="rounded=0;whiteSpace=wrap;html=1;" vertex="1" parent="1">
          <mxGeometry x="530" y="230" width="120" height="20" as="geometry" />
        </mxCell>
        <mxCell id="uXs6J3MQpKC_cQAM-zRv-23" value="medium" style="rounded=0;whiteSpace=wrap;html=1;" vertex="1" parent="1">
          <mxGeometry x="460" y="250" width="120" height="20" as="geometry" />
        </mxCell>
        <mxCell id="uXs6J3MQpKC_cQAM-zRv-30" value="longer grip" style="rounded=0;whiteSpace=wrap;html=1;" vertex="1" parent="1">
          <mxGeometry x="294" y="560" width="120" height="20" as="geometry" />
        </mxCell>
        <mxCell id="uXs6J3MQpKC_cQAM-zRv-39" value="" style="edgeStyle=orthogonalEdgeStyle;rounded=0;orthogonalLoop=1;jettySize=auto;html=1;" edge="1" parent="1" source="uXs6J3MQpKC_cQAM-zRv-35" target="uXs6J3MQpKC_cQAM-zRv-1">
          <mxGeometry relative="1" as="geometry" />
        </mxCell>
        <mxCell id="uXs6J3MQpKC_cQAM-zRv-35" value="stock" style="rounded=0;whiteSpace=wrap;html=1;" vertex="1" parent="1">
          <mxGeometry x="290" y="380" width="30" height="20" as="geometry" />
        </mxCell>
        <mxCell id="uXs6J3MQpKC_cQAM-zRv-42" style="edgeStyle=orthogonalEdgeStyle;rounded=0;orthogonalLoop=1;jettySize=auto;html=1;exitX=1;exitY=0.5;exitDx=0;exitDy=0;entryX=0;entryY=0.75;entryDx=0;entryDy=0;" edge="1" parent="1" source="uXs6J3MQpKC_cQAM-zRv-36" target="uXs6J3MQpKC_cQAM-zRv-35">
          <mxGeometry relative="1" as="geometry">
            <Array as="points">
              <mxPoint x="260" y="420" />
              <mxPoint x="260" y="395" />
            </Array>
          </mxGeometry>
        </mxCell>
        <mxCell id="uXs6J3MQpKC_cQAM-zRv-36" value="light" style="rounded=0;whiteSpace=wrap;html=1;" vertex="1" parent="1">
          <mxGeometry x="190" y="410" width="40" height="20" as="geometry" />
        </mxCell>
        <mxCell id="uXs6J3MQpKC_cQAM-zRv-40" style="edgeStyle=orthogonalEdgeStyle;rounded=0;orthogonalLoop=1;jettySize=auto;html=1;exitX=1;exitY=0.5;exitDx=0;exitDy=0;entryX=0;entryY=0.25;entryDx=0;entryDy=0;" edge="1" parent="1" source="uXs6J3MQpKC_cQAM-zRv-37" target="uXs6J3MQpKC_cQAM-zRv-35">
          <mxGeometry relative="1" as="geometry" />
        </mxCell>
        <mxCell id="uXs6J3MQpKC_cQAM-zRv-37" value="Weighted" style="rounded=0;whiteSpace=wrap;html=1;verticalAlign=middle;labelPosition=center;verticalLabelPosition=middle;align=center;spacingLeft=0;" vertex="1" parent="1">
          <mxGeometry x="180" y="350" width="60" height="20" as="geometry" />
        </mxCell>
        <mxCell id="uXs6J3MQpKC_cQAM-zRv-41" style="edgeStyle=orthogonalEdgeStyle;rounded=0;orthogonalLoop=1;jettySize=auto;html=1;exitX=1;exitY=0.5;exitDx=0;exitDy=0;entryX=0;entryY=0.5;entryDx=0;entryDy=0;" edge="1" parent="1" source="uXs6J3MQpKC_cQAM-zRv-38" target="uXs6J3MQpKC_cQAM-zRv-35">
          <mxGeometry relative="1" as="geometry" />
        </mxCell>
        <mxCell id="uXs6J3MQpKC_cQAM-zRv-38" value="Tactical" style="rounded=0;whiteSpace=wrap;html=1;" vertex="1" parent="1">
          <mxGeometry x="185" y="380" width="50" height="20" as="geometry" />
        </mxCell>
      </root>
    </mxGraphModel>
  </diagram>
</mxfile>
